STARTFONT 2.1
FONT -Monotype-Rockwell-Regular-I-Normal--18-180-72-72-P-95-iso8859-1
SIZE 18 72 72
FONTBOUNDINGBOX 24 22 -3 -4

STARTPROPERTIES 22
FOUNDRY "Monotype"
FAMILY_NAME "Rockwell"
WEIGHT_NAME "Regular"
SLANT "I"
SETWIDTH_NAME "Normal"
ADD_STYLE_NAME ""
PIXEL_SIZE 18
POINT_SIZE 180
RESOLUTION_X 72
RESOLUTION_Y 72
SPACING "P"
AVERAGE_WIDTH 95
CHARSET_REGISTRY "iso8859"
CHARSET_ENCODING "1"
COPYRIGHT "Copyright (c) 1996 Monotype Typography Ltd."
CAP_HEIGHT 14
X_HEIGHT 10
WEIGHT 10
QUAD_WIDTH 12
DEFAULT_CHAR 32
FONT_DESCENT 4
FONT_ASCENT 18
ENDPROPERTIES

CHARS 191

STARTCHAR space
ENCODING 32
SWIDTH 250 0
DWIDTH 6 0
BBX 0 0 0 0
BITMAP
ENDCHAR

STARTCHAR exclam
ENCODING 33
SWIDTH 281 0
DWIDTH 5 0
BBX 5 13 0 0
BITMAP
18
18
18
30
30
30
30
60
60
60
00
C0
C0
ENDCHAR

STARTCHAR quotedbl
ENCODING 34
SWIDTH 417 0
DWIDTH 8 0
BBX 6 5 2 8
BITMAP
CC
CC
CC
CC
CC
ENDCHAR

STARTCHAR numbersign
ENCODING 35
SWIDTH 668 0
DWIDTH 13 0
BBX 11 13 2 0
BITMAP
18C0
18C0
18C0
FFE0
FFE0
3180
3180
3180
FFE0
FFE0
6300
6300
6300
ENDCHAR

STARTCHAR dollar
ENCODING 36
SWIDTH 479 0
DWIDTH 9 0
BBX 8 16 1 -2
BITMAP
04
1C
3E
6B
6B
68
78
3C
1E
16
D6
D6
7C
38
20
20
ENDCHAR

STARTCHAR percent
ENCODING 37
SWIDTH 1000 0
DWIDTH 19 0
BBX 16 13 2 0
BITMAP
3806
4C0C
CC18
CC30
CC60
C8C0
718E
0313
0633
0C33
1833
3032
601C
ENDCHAR

STARTCHAR ampersand
ENCODING 38
SWIDTH 625 0
DWIDTH 12 0
BBX 12 13 1 0
BITMAP
0700
0F80
1980
1B00
0E00
1C00
3C70
6670
C6C0
C380
E300
7FE0
3CE0
ENDCHAR

STARTCHAR quoteright
ENCODING 39
SWIDTH 281 0
DWIDTH 5 0
BBX 3 5 2 8
BITMAP
60
60
20
40
80
ENDCHAR

STARTCHAR parenleft
ENCODING 40
SWIDTH 375 0
DWIDTH 7 0
BBX 7 17 2 -4
BITMAP
06
0C
18
30
30
60
60
C0
C0
C0
C0
C0
C0
60
60
30
10
ENDCHAR

STARTCHAR parenright
ENCODING 41
SWIDTH 375 0
DWIDTH 7 0
BBX 7 17 -1 -4
BITMAP
10
18
0C
0C
06
06
06
06
06
06
0C
0C
18
18
30
60
C0
ENDCHAR

STARTCHAR asterisk
ENCODING 42
SWIDTH 521 0
DWIDTH 10 0
BBX 8 8 2 5
BITMAP
0C
0C
6B
7F
18
3C
C6
C6
ENDCHAR

STARTCHAR plus
ENCODING 43
SWIDTH 667 0
DWIDTH 13 0
BBX 10 10 2 1
BITMAP
0C00
0C00
0C00
0C00
FFC0
FFC0
0C00
0C00
0C00
0C00
ENDCHAR

STARTCHAR comma
ENCODING 44
SWIDTH 281 0
DWIDTH 5 0
BBX 3 5 -1 -3
BITMAP
60
60
20
40
80
ENDCHAR

STARTCHAR minus
ENCODING 45
SWIDTH 667 0
DWIDTH 13 0
BBX 10 2 2 5
BITMAP
FFC0
FFC0
ENDCHAR

STARTCHAR period
ENCODING 46
SWIDTH 281 0
DWIDTH 5 0
BBX 2 2 0 0
BITMAP
C0
C0
ENDCHAR

STARTCHAR slash
ENCODING 47
SWIDTH 438 0
DWIDTH 8 0
BBX 8 13 0 0
BITMAP
03
02
06
04
0C
08
18
10
30
20
60
40
C0
ENDCHAR

STARTCHAR zero
ENCODING 48
SWIDTH 531 0
DWIDTH 10 0
BBX 9 13 0 0
BITMAP
0F00
1F80
3180
3180
6180
6180
6300
C300
C300
C600
C600
FC00
7800
ENDCHAR

STARTCHAR one
ENCODING 49
SWIDTH 531 0
DWIDTH 10 0
BBX 6 13 1 0
BITMAP
1C
1C
0C
0C
18
18
18
18
30
30
30
F8
F8
ENDCHAR

STARTCHAR two
ENCODING 50
SWIDTH 531 0
DWIDTH 10 0
BBX 9 13 0 0
BITMAP
0F00
1F80
3180
3180
0180
0300
0E00
1800
3300
6300
C600
FE00
FC00
ENDCHAR

STARTCHAR three
ENCODING 51
SWIDTH 531 0
DWIDTH 10 0
BBX 9 13 0 0
BITMAP
1E00
3F00
3180
0180
0380
1F00
1E00
0300
C300
C300
C600
7E00
3C00
ENDCHAR

STARTCHAR four
ENCODING 52
SWIDTH 531 0
DWIDTH 10 0
BBX 9 13 0 0
BITMAP
0180
0380
0700
0F00
1B00
3600
6600
C600
FF80
FF80
0C00
1E00
1E00
ENDCHAR

STARTCHAR five
ENCODING 53
SWIDTH 531 0
DWIDTH 10 0
BBX 9 13 0 0
BITMAP
3F80
3F80
3180
6000
6E00
7F00
3300
0300
C300
C300
C600
7E00
3C00
ENDCHAR

STARTCHAR six
ENCODING 54
SWIDTH 531 0
DWIDTH 10 0
BBX 9 13 0 0
BITMAP
0700
1F80
3980
3000
6000
6E00
FF00
E300
C300
C300
C600
7E00
3800
ENDCHAR

STARTCHAR seven
ENCODING 55
SWIDTH 531 0
DWIDTH 10 0
BBX 8 13 2 0
BITMAP
7F
7F
C6
CC
0C
18
18
18
30
30
30
F8
F8
ENDCHAR

STARTCHAR eight
ENCODING 56
SWIDTH 531 0
DWIDTH 10 0
BBX 9 13 0 0
BITMAP
0F00
1F80
3180
3180
3300
1E00
3E00
6300
6300
C300
C600
FE00
7C00
ENDCHAR

STARTCHAR nine
ENCODING 57
SWIDTH 531 0
DWIDTH 10 0
BBX 9 13 0 0
BITMAP
0E00
3F00
3180
6180
6180
6380
7F80
3B00
0300
0600
CE00
FC00
7000
ENDCHAR

STARTCHAR colon
ENCODING 58
SWIDTH 281 0
DWIDTH 5 0
BBX 4 9 0 0
BITMAP
30
30
00
00
00
00
00
C0
C0
ENDCHAR

STARTCHAR semicolon
ENCODING 59
SWIDTH 281 0
DWIDTH 5 0
BBX 5 12 -1 -3
BITMAP
18
18
00
00
00
00
00
60
60
20
40
80
ENDCHAR

STARTCHAR less
ENCODING 60
SWIDTH 667 0
DWIDTH 13 0
BBX 10 9 1 2
BITMAP
00C0
0380
0E00
3800
E000
3800
0E00
0380
00C0
ENDCHAR

STARTCHAR equal
ENCODING 61
SWIDTH 667 0
DWIDTH 13 0
BBX 10 6 2 3
BITMAP
FFC0
FFC0
0000
0000
FFC0
FFC0
ENDCHAR

STARTCHAR greater
ENCODING 62
SWIDTH 667 0
DWIDTH 13 0
BBX 10 9 1 2
BITMAP
C000
7000
1C00
0700
01C0
0700
1C00
7000
C000
ENDCHAR

STARTCHAR question
ENCODING 63
SWIDTH 458 0
DWIDTH 9 0
BBX 8 13 1 0
BITMAP
3C
7E
C3
03
03
3E
3C
60
60
00
00
C0
C0
ENDCHAR

STARTCHAR at
ENCODING 64
SWIDTH 1010 0
DWIDTH 19 0
BBX 18 19 1 -4
BITMAP
01F800
060600
080100
100080
20EC80
41FC40
439840
831840
861840
861840
8C3080
8C3080
8C7100
4FF200
479C00
200040
100180
0C0600
03F800
ENDCHAR

STARTCHAR A
ENCODING 65
SWIDTH 646 0
DWIDTH 12 0
BBX 13 13 -1 0
BITMAP
03F8
03F8
01B0
0330
0330
0630
0C30
0FF0
1FF0
1830
3030
F878
F878
ENDCHAR

STARTCHAR B
ENCODING 66
SWIDTH 563 0
DWIDTH 11 0
BBX 12 13 -1 0
BITMAP
1FE0
1FF0
0C30
0C30
0C60
1FC0
1FC0
1860
3060
3060
30E0
FFC0
FF80
ENDCHAR

STARTCHAR C
ENCODING 67
SWIDTH 719 0
DWIDTH 14 0
BBX 14 13 1 0
BITMAP
07CC
1FFC
3818
7018
6000
E000
C000
C000
C000
C030
60E0
7FC0
1F00
ENDCHAR

STARTCHAR D
ENCODING 68
SWIDTH 708 0
DWIDTH 13 0
BBX 14 13 -1 0
BITMAP
1FE0
1FF8
0C18
0C0C
0C0C
180C
180C
181C
3018
3038
3070
FFE0
FF80
ENDCHAR

STARTCHAR E
ENCODING 69
SWIDTH 573 0
DWIDTH 11 0
BBX 12 13 -1 0
BITMAP
1FF0
1FF0
0C30
0C30
0C00
1F80
1F80
1800
3000
3060
30C0
FFC0
FF80
ENDCHAR

STARTCHAR F
ENCODING 70
SWIDTH 521 0
DWIDTH 10 0
BBX 12 13 -1 0
BITMAP
1FF0
1FF0
0C30
0C30
0C00
1F80
1F80
1800
3000
3000
3000
F800
F800
ENDCHAR

STARTCHAR G
ENCODING 71
SWIDTH 781 0
DWIDTH 15 0
BBX 14 13 1 0
BITMAP
07CC
1FFC
3818
7018
6000
E000
C0F8
C0F8
C030
C070
60E0
7FC0
1F00
ENDCHAR

STARTCHAR H
ENCODING 72
SWIDTH 677 0
DWIDTH 13 0
BBX 15 13 -1 0
BITMAP
1F3E
1F3E
0C18
0C18
0C18
1FF0
1FF0
1830
3060
3060
3060
F9F0
F9F0
ENDCHAR

STARTCHAR I
ENCODING 73
SWIDTH 292 0
DWIDTH 6 0
BBX 8 13 -1 0
BITMAP
1F
1F
0C
0C
0C
18
18
18
30
30
30
F8
F8
ENDCHAR

STARTCHAR J
ENCODING 74
SWIDTH 292 0
DWIDTH 6 0
BBX 10 17 -3 -4
BITMAP
07C0
07C0
0300
0300
0300
0600
0600
0600
0C00
0C00
0C00
1800
1800
1800
3000
F000
E000
ENDCHAR

STARTCHAR K
ENCODING 75
SWIDTH 594 0
DWIDTH 11 0
BBX 13 13 -1 0
BITMAP
1F78
1F78
0C60
0CC0
0D80
1B00
1E00
1E00
3300
3180
30C0
F9F0
F9F0
ENDCHAR

STARTCHAR L
ENCODING 76
SWIDTH 490 0
DWIDTH 9 0
BBX 10 13 -1 0
BITMAP
1F00
1F00
0C00
0C00
0C00
1800
1800
1800
30C0
30C0
3180
FF80
FF00
ENDCHAR

STARTCHAR M
ENCODING 77
SWIDTH 833 0
DWIDTH 16 0
BBX 19 13 -2 0
BITMAP
0F01E0
0F03E0
0703C0
0D86C0
0D8CC0
198D80
199980
199980
31F300
30E300
30C300
F8CF80
F88F80
ENDCHAR

STARTCHAR N
ENCODING 78
SWIDTH 698 0
DWIDTH 13 0
BBX 15 13 -1 0
BITMAP
1E3E
1E3E
0E18
0F18
1B18
1B30
1B30
19B0
31A0
31E0
30E0
F8C0
F8C0
ENDCHAR

STARTCHAR O
ENCODING 79
SWIDTH 781 0
DWIDTH 15 0
BBX 13 13 1 0
BITMAP
07C0
1FF0
3830
7018
6018
E018
C018
C038
C030
C070
60E0
7FC0
1F00
ENDCHAR

STARTCHAR P
ENCODING 80
SWIDTH 542 0
DWIDTH 10 0
BBX 12 13 -1 0
BITMAP
1FC0
1FE0
0C70
0C30
0C30
1870
1FE0
1F80
3000
3000
3000
F800
F800
ENDCHAR

STARTCHAR Q
ENCODING 81
SWIDTH 781 0
DWIDTH 15 0
BBX 13 16 1 -3
BITMAP
07C0
1FF0
3830
7018
6018
E018
C018
C038
C030
C070
60E0
7FC0
1F00
3E00
07C0
0180
ENDCHAR

STARTCHAR R
ENCODING 82
SWIDTH 583 0
DWIDTH 11 0
BBX 12 13 -1 0
BITMAP
1FE0
1FF0
0C30
0C30
0C60
1FE0
1FC0
1B00
3180
3180
30C0
F8F0
F8F0
ENDCHAR

STARTCHAR S
ENCODING 83
SWIDTH 521 0
DWIDTH 10 0
BBX 11 13 0 0
BITMAP
0F60
1FE0
30C0
30C0
3800
1E00
0F00
0380
0180
6180
6380
FF00
DE00
ENDCHAR

STARTCHAR T
ENCODING 84
SWIDTH 583 0
DWIDTH 11 0
BBX 12 13 1 0
BITMAP
7FF0
7FF0
6630
C660
C660
0C00
0C00
0C00
1800
1800
1800
7C00
7C00
ENDCHAR

STARTCHAR U
ENCODING 85
SWIDTH 635 0
DWIDTH 12 0
BBX 13 13 1 0
BITMAP
7CF8
7CF8
3060
3060
3060
60C0
60C0
60C0
C180
C180
C380
FF00
7E00
ENDCHAR

STARTCHAR V
ENCODING 86
SWIDTH 677 0
DWIDTH 13 0
BBX 12 13 2 0
BITMAP
F1F0
F1F0
60C0
6180
6300
6300
6600
6C00
6C00
7800
7000
6000
6000
ENDCHAR

STARTCHAR W
ENCODING 87
SWIDTH 990 0
DWIDTH 19 0
BBX 20 13 1 0
BITMAP
F1F1F0
F1F1F0
60E0C0
61E180
636300
636300
666600
6C6C00
6C6C00
787800
707000
606000
606000
ENDCHAR

STARTCHAR X
ENCODING 88
SWIDTH 635 0
DWIDTH 12 0
BBX 14 13 -1 0
BITMAP
3E7C
3E7C
0C30
0660
06C0
0380
0300
0700
0D80
1980
30C0
F9F0
F9F0
ENDCHAR

STARTCHAR Y
ENCODING 89
SWIDTH 573 0
DWIDTH 11 0
BBX 11 13 2 0
BITMAP
F3E0
F3E0
6180
3300
3600
1C00
1800
1800
3000
3000
3000
F800
F800
ENDCHAR

STARTCHAR Z
ENCODING 90
SWIDTH 563 0
DWIDTH 11 0
BBX 12 13 0 0
BITMAP
0FF0
1FF0
1860
30C0
0180
0300
0600
0C00
1800
30C0
6180
FF80
FF00
ENDCHAR

STARTCHAR bracketleft
ENCODING 91
SWIDTH 313 0
DWIDTH 6 0
BBX 7 17 0 -4
BITMAP
1E
1E
18
18
30
30
30
30
60
60
60
60
60
C0
C0
F0
F0
ENDCHAR

STARTCHAR backslash
ENCODING 92
SWIDTH 438 0
DWIDTH 8 0
BBX 8 13 0 0
BITMAP
C0
C0
60
60
30
30
18
18
0C
0C
06
06
03
ENDCHAR

STARTCHAR bracketright
ENCODING 93
SWIDTH 313 0
DWIDTH 6 0
BBX 7 17 -1 -4
BITMAP
1E
1E
06
06
06
0C
0C
0C
0C
18
18
18
18
30
30
F0
F0
ENDCHAR

STARTCHAR asciicircum
ENCODING 94
SWIDTH 427 0
DWIDTH 8 0
BBX 7 7 1 6
BITMAP
10
38
28
6C
44
C6
82
ENDCHAR

STARTCHAR underscore
ENCODING 95
SWIDTH 500 0
DWIDTH 10 0
BBX 10 2 0 -3
BITMAP
FFC0
FFC0
ENDCHAR

STARTCHAR quoteleft
ENCODING 96
SWIDTH 281 0
DWIDTH 5 0
BBX 3 5 1 8
BITMAP
20
40
80
C0
C0
ENDCHAR

STARTCHAR a
ENCODING 97
SWIDTH 531 0
DWIDTH 10 0
BBX 8 9 1 0
BITMAP
3E
7F
03
3B
7E
C6
C6
FF
77
ENDCHAR

STARTCHAR b
ENCODING 98
SWIDTH 615 0
DWIDTH 12 0
BBX 10 13 1 0
BITMAP
3800
3800
1800
1800
3700
3F80
38C0
30C0
60C0
60C0
7180
FF00
EE00
ENDCHAR

STARTCHAR c
ENCODING 99
SWIDTH 500 0
DWIDTH 10 0
BBX 9 9 1 0
BITMAP
1E80
3F80
6180
C000
C000
C000
C300
7E00
3C00
ENDCHAR

STARTCHAR d
ENCODING 100
SWIDTH 604 0
DWIDTH 11 0
BBX 10 13 1 0
BITMAP
01C0
01C0
00C0
00C0
1D80
3F80
6380
C180
C300
C300
C700
7F80
3B80
ENDCHAR

STARTCHAR e
ENCODING 101
SWIDTH 552 0
DWIDTH 10 0
BBX 8 9 1 0
BITMAP
1C
3E
63
FF
FF
C0
C6
7C
38
ENDCHAR

STARTCHAR f
ENCODING 102
SWIDTH 281 0
DWIDTH 5 0
BBX 7 13 0 0
BITMAP
06
0E
18
18
7C
7C
30
30
60
60
60
F0
F0
ENDCHAR

STARTCHAR g
ENCODING 103
SWIDTH 604 0
DWIDTH 11 0
BBX 12 13 0 -4
BITMAP
0F70
1FF0
30C0
60C0
60C0
6180
6180
3F80
1D80
0300
C300
FE00
7C00
ENDCHAR

STARTCHAR h
ENCODING 104
SWIDTH 552 0
DWIDTH 10 0
BBX 9 13 0 0
BITMAP
3800
3800
1800
1800
3700
3F80
3980
3180
3180
6300
6300
F380
F380
ENDCHAR

STARTCHAR i
ENCODING 105
SWIDTH 281 0
DWIDTH 5 0
BBX 5 13 0 0
BITMAP
18
18
00
00
70
70
30
30
60
60
60
F0
F0
ENDCHAR

STARTCHAR j
ENCODING 106
SWIDTH 281 0
DWIDTH 5 0
BBX 7 17 -2 -4
BITMAP
06
06
00
00
1C
1C
0C
0C
18
18
18
18
30
30
30
F0
E0
ENDCHAR

STARTCHAR k
ENCODING 107
SWIDTH 521 0
DWIDTH 10 0
BBX 9 13 0 0
BITMAP
3800
3800
1800
1800
3380
3380
3600
3C00
7800
6C00
6600
F380
F380
ENDCHAR

STARTCHAR l
ENCODING 108
SWIDTH 281 0
DWIDTH 5 0
BBX 5 13 0 0
BITMAP
38
38
18
18
30
30
30
30
60
60
60
F0
F0
ENDCHAR

STARTCHAR m
ENCODING 109
SWIDTH 844 0
DWIDTH 16 0
BBX 14 9 1 0
BITMAP
7738
7FFC
39CC
318C
318C
6318
6318
F39C
F39C
ENDCHAR

STARTCHAR n
ENCODING 110
SWIDTH 552 0
DWIDTH 10 0
BBX 9 9 0 0
BITMAP
7700
7F80
3980
3180
3180
6300
6300
F380
F380
ENDCHAR

STARTCHAR o
ENCODING 111
SWIDTH 563 0
DWIDTH 11 0
BBX 9 9 1 0
BITMAP
1E00
3F00
6180
C180
C180
C180
C300
7E00
3C00
ENDCHAR

STARTCHAR p
ENCODING 112
SWIDTH 604 0
DWIDTH 11 0
BBX 11 13 -1 -4
BITMAP
3B80
3FC0
1C60
1860
1860
3060
38C0
3F80
3700
6000
6000
F000
F000
ENDCHAR

STARTCHAR q
ENCODING 113
SWIDTH 604 0
DWIDTH 11 0
BBX 10 13 1 -4
BITMAP
1EC0
3FC0
6180
C180
C180
C300
C300
7F00
3B00
0600
0600
0F00
0F00
ENDCHAR

STARTCHAR r
ENCODING 114
SWIDTH 396 0
DWIDTH 8 0
BBX 8 9 0 0
BITMAP
77
7F
38
30
60
60
60
F0
F0
ENDCHAR

STARTCHAR s
ENCODING 115
SWIDTH 427 0
DWIDTH 8 0
BBX 8 9 0 0
BITMAP
3B
7F
63
70
3C
0E
C6
FE
DC
ENDCHAR

STARTCHAR t
ENCODING 116
SWIDTH 292 0
DWIDTH 6 0
BBX 5 12 1 0
BITMAP
10
30
30
F8
F8
60
60
C0
C0
C0
F0
70
ENDCHAR

STARTCHAR u
ENCODING 117
SWIDTH 552 0
DWIDTH 10 0
BBX 8 9 1 0
BITMAP
E7
E7
63
63
C6
C6
CE
FF
77
ENDCHAR

STARTCHAR v
ENCODING 118
SWIDTH 479 0
DWIDTH 9 0
BBX 10 9 0 0
BITMAP
F3C0
F3C0
6300
6600
6C00
6C00
7800
7000
6000
ENDCHAR

STARTCHAR w
ENCODING 119
SWIDTH 740 0
DWIDTH 14 0
BBX 15 9 0 0
BITMAP
F7BE
F7BE
6318
6730
6F60
6B40
7BC0
7380
6300
ENDCHAR

STARTCHAR x
ENCODING 120
SWIDTH 510 0
DWIDTH 10 0
BBX 10 9 0 0
BITMAP
39C0
39C0
1B00
0E00
0C00
1C00
3600
E700
E700
ENDCHAR

STARTCHAR y
ENCODING 121
SWIDTH 510 0
DWIDTH 10 0
BBX 12 13 -1 -4
BITMAP
3CF0
3CF0
18C0
1980
1B00
1B00
1E00
1C00
1800
1800
3000
F000
E000
ENDCHAR

STARTCHAR z
ENCODING 122
SWIDTH 417 0
DWIDTH 8 0
BBX 8 9 0 0
BITMAP
3F
3F
66
0C
18
30
63
FE
FC
ENDCHAR

STARTCHAR braceleft
ENCODING 123
SWIDTH 333 0
DWIDTH 6 0
BBX 6 17 0 -4
BITMAP
0C
1C
30
30
30
30
30
60
C0
60
30
30
30
30
30
1C
0C
ENDCHAR

STARTCHAR bar
ENCODING 124
SWIDTH 527 0
DWIDTH 10 0
BBX 2 17 5 -4
BITMAP
C0
C0
C0
C0
C0
C0
C0
C0
C0
C0
C0
C0
C0
C0
C0
C0
C0
ENDCHAR

STARTCHAR braceright
ENCODING 125
SWIDTH 333 0
DWIDTH 6 0
BBX 6 17 1 -4
BITMAP
C0
E0
30
30
30
30
30
18
0C
18
30
30
30
30
30
E0
C0
ENDCHAR

STARTCHAR asciitilde
ENCODING 126
SWIDTH 583 0
DWIDTH 11 0
BBX 9 3 1 5
BITMAP
7080
FF80
8700
ENDCHAR

STARTCHAR space
ENCODING 160
SWIDTH 250 0
DWIDTH 5 0
BBX 0 0 0 0
BITMAP
ENDCHAR

STARTCHAR exclamdown
ENCODING 161
SWIDTH 281 0
DWIDTH 5 0
BBX 5 13 0 -4
BITMAP
18
18
00
30
30
30
60
60
60
60
C0
C0
C0
ENDCHAR

STARTCHAR cent
ENCODING 162
SWIDTH 500 0
DWIDTH 10 0
BBX 9 17 1 -4
BITMAP
0100
0100
0200
0200
1E80
3F80
6580
C800
C800
C800
D300
7E00
3C00
2000
2000
4000
4000
ENDCHAR

STARTCHAR sterling
ENCODING 163
SWIDTH 458 0
DWIDTH 9 0
BBX 10 13 0 0
BITMAP
0780
0FC0
18C0
1800
1800
1800
7E00
7E00
1800
1800
F180
BF00
EE00
ENDCHAR

STARTCHAR currency
ENCODING 164
SWIDTH 667 0
DWIDTH 13 0
BBX 9 9 2 2
BITMAP
DD80
FF80
6300
C180
C180
C180
6300
FF80
DD80
ENDCHAR

STARTCHAR yen
ENCODING 165
SWIDTH 573 0
DWIDTH 11 0
BBX 12 13 1 0
BITMAP
78F0
78F0
30C0
1980
7FE0
0E00
0C00
FFC0
1800
1800
1800
7C00
7C00
ENDCHAR

STARTCHAR brokenbar
ENCODING 166
SWIDTH 527 0
DWIDTH 10 0
BBX 2 17 4 -4
BITMAP
C0
C0
C0
C0
C0
C0
C0
00
00
00
C0
C0
C0
C0
C0
C0
C0
ENDCHAR

STARTCHAR section
ENCODING 167
SWIDTH 448 0
DWIDTH 9 0
BBX 8 17 1 -4
BITMAP
1C
3E
63
63
30
78
CC
C6
C3
63
33
1E
0C
C6
C6
7C
38
ENDCHAR

STARTCHAR dieresis
ENCODING 168
SWIDTH 333 0
DWIDTH 6 0
BBX 6 2 2 11
BITMAP
CC
CC
ENDCHAR

STARTCHAR copyright
ENCODING 169
SWIDTH 740 0
DWIDTH 14 0
BBX 13 13 1 0
BITMAP
0F80
3060
4010
4790
8888
9808
9808
9888
8888
4710
4010
3060
0F80
ENDCHAR

STARTCHAR ordfeminine
ENCODING 170
SWIDTH 344 0
DWIDTH 7 0
BBX 6 6 1 7
BITMAP
38
0C
7C
D8
D8
6C
ENDCHAR

STARTCHAR guillemotleft
ENCODING 171
SWIDTH 458 0
DWIDTH 9 0
BBX 10 9 -1 0
BITMAP
0CC0
1980
3300
6600
CC00
CC00
6600
3300
1980
ENDCHAR

STARTCHAR logicalnot
ENCODING 172
SWIDTH 667 0
DWIDTH 13 0
BBX 10 6 2 3
BITMAP
FFC0
FFC0
00C0
00C0
00C0
00C0
ENDCHAR

STARTCHAR hyphen
ENCODING 173
SWIDTH 385 0
DWIDTH 7 0
BBX 6 2 1 4
BITMAP
FC
FC
ENDCHAR

STARTCHAR registered
ENCODING 174
SWIDTH 740 0
DWIDTH 14 0
BBX 13 13 1 0
BITMAP
0F80
3060
4010
5F90
8CC8
8CC8
8F88
8D08
8D88
5ED0
4010
3060
0F80
ENDCHAR

STARTCHAR macron
ENCODING 175
SWIDTH 333 0
DWIDTH 6 0
BBX 6 2 2 11
BITMAP
FC
FC
ENDCHAR

STARTCHAR degree
ENCODING 176
SWIDTH 396 0
DWIDTH 8 0
BBX 6 6 2 7
BITMAP
78
CC
84
84
CC
78
ENDCHAR

STARTCHAR plusminus
ENCODING 177
SWIDTH 667 0
DWIDTH 13 0
BBX 10 13 1 0
BITMAP
0C00
0C00
0C00
0C00
FFC0
FFC0
0C00
0C00
0C00
0C00
0000
FFC0
FFC0
ENDCHAR

STARTCHAR twosuperior
ENCODING 178
SWIDTH 323 0
DWIDTH 6 0
BBX 6 7 2 6
BITMAP
38
6C
18
30
60
D8
F0
ENDCHAR

STARTCHAR threesuperior
ENCODING 179
SWIDTH 323 0
DWIDTH 6 0
BBX 6 7 2 6
BITMAP
38
4C
18
30
18
98
70
ENDCHAR

STARTCHAR acute
ENCODING 180
SWIDTH 333 0
DWIDTH 6 0
BBX 4 3 2 10
BITMAP
30
60
80
ENDCHAR

STARTCHAR mu
ENCODING 181
SWIDTH 552 0
DWIDTH 10 0
BBX 9 13 0 -4
BITMAP
3180
3180
3180
3180
6300
6300
6300
7F00
7B00
C000
C000
C000
C000
ENDCHAR

STARTCHAR paragraph
ENCODING 182
SWIDTH 542 0
DWIDTH 10 0
BBX 10 17 0 -4
BITMAP
1FC0
3FC0
7980
F980
F980
F980
F980
7980
1980
1980
1980
1980
1980
1980
1980
1980
1980
ENDCHAR

STARTCHAR periodcentered
ENCODING 183
SWIDTH 292 0
DWIDTH 6 0
BBX 2 2 2 5
BITMAP
C0
C0
ENDCHAR

STARTCHAR cedilla
ENCODING 184
SWIDTH 333 0
DWIDTH 6 0
BBX 4 4 1 -4
BITMAP
60
60
30
E0
ENDCHAR

STARTCHAR onesuperior
ENCODING 185
SWIDTH 323 0
DWIDTH 6 0
BBX 4 7 3 6
BITMAP
70
30
30
60
60
60
F0
ENDCHAR

STARTCHAR ordmasculine
ENCODING 186
SWIDTH 365 0
DWIDTH 7 0
BBX 5 7 2 6
BITMAP
30
58
58
D8
D0
D0
60
ENDCHAR

STARTCHAR guillemotright
ENCODING 187
SWIDTH 458 0
DWIDTH 9 0
BBX 10 9 0 0
BITMAP
6600
3300
1980
0CC0
0CC0
1980
3300
6600
CC00
ENDCHAR

STARTCHAR onequarter
ENCODING 188
SWIDTH 1000 0
DWIDTH 19 0
BBX 14 13 3 0
BITMAP
700C
3018
3030
6060
60C0
6180
F318
0638
0C58
18B0
30F8
6030
C078
ENDCHAR

STARTCHAR onehalf
ENCODING 189
SWIDTH 1000 0
DWIDTH 19 0
BBX 14 13 3 0
BITMAP
700C
3018
3030
6060
60C0
6180
F338
066C
0C18
1830
3060
60D8
C0F0
ENDCHAR

STARTCHAR threequarters
ENCODING 190
SWIDTH 1000 0
DWIDTH 19 0
BBX 15 13 3 0
BITMAP
3806
4C0C
1818
3030
1860
98C0
718C
031C
062C
0C58
187C
3018
603C
ENDCHAR

STARTCHAR questiondown
ENCODING 191
SWIDTH 458 0
DWIDTH 9 0
BBX 8 12 0 -4
BITMAP
03
03
00
06
06
3C
7C
C0
C0
C3
7E
3C
ENDCHAR

STARTCHAR Agrave
ENCODING 192
SWIDTH 646 0
DWIDTH 12 0
BBX 13 17 -1 0
BITMAP
0180
00C0
0020
0000
03F8
03F8
01B0
0330
0330
0630
0C30
0FF0
1FF0
1830
3030
F878
F878
ENDCHAR

STARTCHAR Aacute
ENCODING 193
SWIDTH 646 0
DWIDTH 12 0
BBX 13 17 -1 0
BITMAP
0018
0030
0040
0000
03F8
03F8
01B0
0330
0330
0630
0C30
0FF0
1FF0
1830
3030
F878
F878
ENDCHAR

STARTCHAR Acircumflex
ENCODING 194
SWIDTH 646 0
DWIDTH 12 0
BBX 13 17 -1 0
BITMAP
0060
00F0
0110
0000
03F8
03F8
01B0
0330
0330
0630
0C30
0FF0
1FF0
1830
3030
F878
F878
ENDCHAR

STARTCHAR Atilde
ENCODING 195
SWIDTH 646 0
DWIDTH 12 0
BBX 13 16 -1 0
BITMAP
00E8
0170
0000
03F8
03F8
01B0
0330
0330
0630
0C30
0FF0
1FF0
1830
3030
F878
F878
ENDCHAR

STARTCHAR Adieresis
ENCODING 196
SWIDTH 646 0
DWIDTH 12 0
BBX 13 16 -1 0
BITMAP
0198
0198
0000
03F8
03F8
01B0
0330
0330
0630
0C30
0FF0
1FF0
1830
3030
F878
F878
ENDCHAR

STARTCHAR Aring
ENCODING 197
SWIDTH 646 0
DWIDTH 12 0
BBX 13 18 -1 0
BITMAP
0060
0090
0090
0060
0000
03F8
03F8
01B0
0330
0330
0630
0C30
0FF0
1FF0
1830
3030
F878
F878
ENDCHAR

STARTCHAR AE
ENCODING 198
SWIDTH 969 0
DWIDTH 18 0
BBX 19 13 0 0
BITMAP
01FFE0
01FFE0
00D860
019860
031800
03FF00
07FF00
0C3000
186000
1860C0
306180
F9FF80
F9FF00
ENDCHAR

STARTCHAR Ccedilla
ENCODING 199
SWIDTH 719 0
DWIDTH 14 0
BBX 14 17 1 -4
BITMAP
07CC
1FFC
3818
7018
6000
E000
C000
C000
C000
C030
60E0
7FC0
1F00
0C00
0C00
0600
1C00
ENDCHAR

STARTCHAR Egrave
ENCODING 200
SWIDTH 573 0
DWIDTH 11 0
BBX 12 17 -1 0
BITMAP
0600
0300
0080
0000
1FF0
1FF0
0C30
0C30
0C00
1F80
1F80
1800
3000
3060
30C0
FFC0
FF80
ENDCHAR

STARTCHAR Eacute
ENCODING 201
SWIDTH 573 0
DWIDTH 11 0
BBX 12 17 -1 0
BITMAP
00C0
0180
0200
0000
1FF0
1FF0
0C30
0C30
0C00
1F80
1F80
1800
3000
3060
30C0
FFC0
FF80
ENDCHAR

STARTCHAR Ecircumflex
ENCODING 202
SWIDTH 573 0
DWIDTH 11 0
BBX 12 17 -1 0
BITMAP
00C0
01E0
0220
0000
1FF0
1FF0
0C30
0C30
0C00
1F80
1F80
1800
3000
3060
30C0
FFC0
FF80
ENDCHAR

STARTCHAR Edieresis
ENCODING 203
SWIDTH 573 0
DWIDTH 11 0
BBX 12 16 -1 0
BITMAP
0660
0660
0000
1FF0
1FF0
0C30
0C30
0C00
1F80
1F80
1800
3000
3060
30C0
FFC0
FF80
ENDCHAR

STARTCHAR Igrave
ENCODING 204
SWIDTH 292 0
DWIDTH 6 0
BBX 8 17 -1 0
BITMAP
0C
06
01
00
1F
1F
0C
0C
0C
18
18
18
30
30
30
F8
F8
ENDCHAR

STARTCHAR Iacute
ENCODING 205
SWIDTH 292 0
DWIDTH 6 0
BBX 9 17 -1 0
BITMAP
0180
0300
0400
0000
1F00
1F00
0C00
0C00
0C00
1800
1800
1800
3000
3000
3000
F800
F800
ENDCHAR

STARTCHAR Icircumflex
ENCODING 206
SWIDTH 292 0
DWIDTH 6 0
BBX 9 17 -1 0
BITMAP
0300
0780
0880
0000
1F00
1F00
0C00
0C00
0C00
1800
1800
1800
3000
3000
3000
F800
F800
ENDCHAR

STARTCHAR Idieresis
ENCODING 207
SWIDTH 292 0
DWIDTH 6 0
BBX 9 16 -1 0
BITMAP
0D80
0D80
0000
1F00
1F00
0C00
0C00
0C00
1800
1800
1800
3000
3000
3000
F800
F800
ENDCHAR

STARTCHAR Eth
ENCODING 208
SWIDTH 708 0
DWIDTH 13 0
BBX 14 13 -1 0
BITMAP
1FE0
1FF8
0C18
0C0C
0C0C
180C
7F0C
7F1C
1818
3038
3070
FFE0
FF80
ENDCHAR

STARTCHAR Ntilde
ENCODING 209
SWIDTH 698 0
DWIDTH 13 0
BBX 15 16 -1 0
BITMAP
01D0
02E0
0000
1E3E
1E3E
0E18
0F18
1B18
1B30
1B30
19B0
31A0
31E0
30E0
F8C0
F8C0
ENDCHAR

STARTCHAR Ograve
ENCODING 210
SWIDTH 781 0
DWIDTH 15 0
BBX 13 17 1 0
BITMAP
0600
0300
0080
0000
07C0
1FF0
3830
7018
6018
E018
C018
C038
C030
C070
60E0
7FC0
1F00
ENDCHAR

STARTCHAR Oacute
ENCODING 211
SWIDTH 781 0
DWIDTH 15 0
BBX 13 17 1 0
BITMAP
0060
00C0
0100
0000
07C0
1FF0
3830
7018
6018
E018
C018
C038
C030
C070
60E0
7FC0
1F00
ENDCHAR

STARTCHAR Ocircumflex
ENCODING 212
SWIDTH 781 0
DWIDTH 15 0
BBX 13 17 1 0
BITMAP
00C0
01E0
0220
0000
07C0
1FF0
3830
7018
6018
E018
C018
C038
C030
C070
60E0
7FC0
1F00
ENDCHAR

STARTCHAR Otilde
ENCODING 213
SWIDTH 781 0
DWIDTH 15 0
BBX 13 16 1 0
BITMAP
03A0
05C0
0000
07C0
1FF0
3830
7018
6018
E018
C018
C038
C030
C070
60E0
7FC0
1F00
ENDCHAR

STARTCHAR Odieresis
ENCODING 214
SWIDTH 781 0
DWIDTH 15 0
BBX 13 16 1 0
BITMAP
0660
0660
0000
07C0
1FF0
3830
7018
6018
E018
C018
C038
C030
C070
60E0
7FC0
1F00
ENDCHAR

STARTCHAR multiply
ENCODING 215
SWIDTH 668 0
DWIDTH 13 0
BBX 10 9 2 2
BITMAP
C0C0
6180
3300
1E00
0C00
1E00
3300
6180
C0C0
ENDCHAR

STARTCHAR Oslash
ENCODING 216
SWIDTH 781 0
DWIDTH 15 0
BBX 13 13 1 0
BITMAP
07D8
1FF0
3870
70D8
6198
E318
C318
C638
CC30
D870
70E0
7FC0
DF00
ENDCHAR

STARTCHAR Ugrave
ENCODING 217
SWIDTH 635 0
DWIDTH 12 0
BBX 13 17 1 0
BITMAP
0C00
0600
0100
0000
7CF8
7CF8
3060
3060
3060
60C0
60C0
60C0
C180
C180
C380
FF00
7E00
ENDCHAR

STARTCHAR Uacute
ENCODING 218
SWIDTH 635 0
DWIDTH 12 0
BBX 13 17 1 0
BITMAP
00C0
0180
0200
0000
7CF8
7CF8
3060
3060
3060
60C0
60C0
60C0
C180
C180
C380
FF00
7E00
ENDCHAR

STARTCHAR Ucircumflex
ENCODING 219
SWIDTH 635 0
DWIDTH 12 0
BBX 13 17 1 0
BITMAP
0180
03C0
0440
0000
7CF8
7CF8
3060
3060
3060
60C0
60C0
60C0
C180
C180
C380
FF00
7E00
ENDCHAR

STARTCHAR Udieresis
ENCODING 220
SWIDTH 635 0
DWIDTH 12 0
BBX 13 16 1 0
BITMAP
0CC0
0CC0
0000
7CF8
7CF8
3060
3060
3060
60C0
60C0
60C0
C180
C180
C380
FF00
7E00
ENDCHAR

STARTCHAR Yacute
ENCODING 221
SWIDTH 573 0
DWIDTH 11 0
BBX 11 17 2 0
BITMAP
0300
0600
0800
0000
F3E0
F3E0
6180
3300
3600
1C00
1800
1800
3000
3000
3000
F800
F800
ENDCHAR

STARTCHAR Thorn
ENCODING 222
SWIDTH 542 0
DWIDTH 10 0
BBX 11 13 -1 0
BITMAP
1F00
1F00
0C00
0FC0
0FE0
1860
1860
18E0
3FC0
3F80
3000
F800
F800
ENDCHAR

STARTCHAR germandbls
ENCODING 223
SWIDTH 615 0
DWIDTH 12 0
BBX 12 13 -1 0
BITMAP
01E0
03F0
0630
0C30
0C60
19C0
19E0
1830
1830
3030
3060
FBE0
FB80
ENDCHAR

STARTCHAR agrave
ENCODING 224
SWIDTH 531 0
DWIDTH 10 0
BBX 8 13 1 0
BITMAP
30
18
04
00
3E
7F
03
3B
7E
C6
C6
FF
77
ENDCHAR

STARTCHAR aacute
ENCODING 225
SWIDTH 531 0
DWIDTH 10 0
BBX 8 13 1 0
BITMAP
03
06
08
00
3E
7F
03
3B
7E
C6
C6
FF
77
ENDCHAR

STARTCHAR acircumflex
ENCODING 226
SWIDTH 531 0
DWIDTH 10 0
BBX 8 13 1 0
BITMAP
06
0F
11
00
3E
7F
03
3B
7E
C6
C6
FF
77
ENDCHAR

STARTCHAR atilde
ENCODING 227
SWIDTH 531 0
DWIDTH 10 0
BBX 8 12 1 0
BITMAP
1D
2E
00
3E
7F
03
3B
7E
C6
C6
FF
77
ENDCHAR

STARTCHAR adieresis
ENCODING 228
SWIDTH 531 0
DWIDTH 10 0
BBX 8 12 1 0
BITMAP
1B
1B
00
3E
7F
03
3B
7E
C6
C6
FF
77
ENDCHAR

STARTCHAR aring
ENCODING 229
SWIDTH 531 0
DWIDTH 10 0
BBX 8 14 1 0
BITMAP
0C
12
12
0C
00
3E
7F
03
3B
7E
C6
C6
FF
77
ENDCHAR

STARTCHAR ae
ENCODING 230
SWIDTH 865 0
DWIDTH 16 0
BBX 14 9 1 0
BITMAP
3C70
7EF8
038C
3BFC
7FFC
C300
C798
FDF0
78E0
ENDCHAR

STARTCHAR ccedilla
ENCODING 231
SWIDTH 500 0
DWIDTH 10 0
BBX 9 13 1 -4
BITMAP
1E80
3F80
6180
C000
C000
C000
C300
7E00
3C00
3000
3000
1800
7000
ENDCHAR

STARTCHAR egrave
ENCODING 232
SWIDTH 552 0
DWIDTH 10 0
BBX 8 13 1 0
BITMAP
30
18
04
00
1C
3E
63
FF
FF
C0
C6
7C
38
ENDCHAR

STARTCHAR eacute
ENCODING 233
SWIDTH 552 0
DWIDTH 10 0
BBX 8 13 1 0
BITMAP
03
06
08
00
1C
3E
63
FF
FF
C0
C6
7C
38
ENDCHAR

STARTCHAR ecircumflex
ENCODING 234
SWIDTH 552 0
DWIDTH 10 0
BBX 8 13 1 0
BITMAP
06
0F
11
00
1C
3E
63
FF
FF
C0
C6
7C
38
ENDCHAR

STARTCHAR edieresis
ENCODING 235
SWIDTH 552 0
DWIDTH 10 0
BBX 8 12 1 0
BITMAP
1B
1B
00
1C
3E
63
FF
FF
C0
C6
7C
38
ENDCHAR

STARTCHAR igrave
ENCODING 236
SWIDTH 281 0
DWIDTH 5 0
BBX 5 13 0 0
BITMAP
60
30
08
00
70
70
30
30
60
60
60
F0
F0
ENDCHAR

STARTCHAR iacute
ENCODING 237
SWIDTH 281 0
DWIDTH 5 0
BBX 6 13 0 0
BITMAP
0C
18
20
00
70
70
30
30
60
60
60
F0
F0
ENDCHAR

STARTCHAR icircumflex
ENCODING 238
SWIDTH 281 0
DWIDTH 5 0
BBX 6 13 0 0
BITMAP
18
3C
44
00
70
70
30
30
60
60
60
F0
F0
ENDCHAR

STARTCHAR idieresis
ENCODING 239
SWIDTH 281 0
DWIDTH 5 0
BBX 6 12 0 0
BITMAP
6C
6C
00
70
70
30
30
60
60
60
F0
F0
ENDCHAR

STARTCHAR eth
ENCODING 240
SWIDTH 635 0
DWIDTH 12 0
BBX 9 13 2 0
BITMAP
1980
0E00
1E00
2300
1F00
3F80
6180
C180
C180
C180
C300
7E00
3C00
ENDCHAR

STARTCHAR ntilde
ENCODING 241
SWIDTH 552 0
DWIDTH 10 0
BBX 9 12 0 0
BITMAP
0E80
1700
0000
7700
7F80
3980
3180
3180
6300
6300
F380
F380
ENDCHAR

STARTCHAR ograve
ENCODING 242
SWIDTH 563 0
DWIDTH 11 0
BBX 9 13 1 0
BITMAP
3000
1800
0400
0000
1E00
3F00
6180
C180
C180
C180
C300
7E00
3C00
ENDCHAR

STARTCHAR oacute
ENCODING 243
SWIDTH 563 0
DWIDTH 11 0
BBX 9 13 1 0
BITMAP
0300
0600
0800
0000
1E00
3F00
6180
C180
C180
C180
C300
7E00
3C00
ENDCHAR

STARTCHAR ocircumflex
ENCODING 244
SWIDTH 563 0
DWIDTH 11 0
BBX 9 13 1 0
BITMAP
0600
0F00
1100
0000
1E00
3F00
6180
C180
C180
C180
C300
7E00
3C00
ENDCHAR

STARTCHAR otilde
ENCODING 245
SWIDTH 563 0
DWIDTH 11 0
BBX 9 12 1 0
BITMAP
1D00
2E00
0000
1E00
3F00
6180
C180
C180
C180
C300
7E00
3C00
ENDCHAR

STARTCHAR odieresis
ENCODING 246
SWIDTH 563 0
DWIDTH 11 0
BBX 9 12 1 0
BITMAP
1B00
1B00
0000
1E00
3F00
6180
C180
C180
C180
C300
7E00
3C00
ENDCHAR

STARTCHAR divide
ENCODING 247
SWIDTH 668 0
DWIDTH 13 0
BBX 10 10 1 1
BITMAP
0C00
0C00
0000
0000
FFC0
FFC0
0000
0000
0C00
0C00
ENDCHAR

STARTCHAR oslash
ENCODING 248
SWIDTH 563 0
DWIDTH 11 0
BBX 11 9 0 0
BITMAP
0F60
1FC0
31C0
63C0
66C0
6CC0
7980
7F00
DE00
ENDCHAR

STARTCHAR ugrave
ENCODING 249
SWIDTH 552 0
DWIDTH 10 0
BBX 8 13 1 0
BITMAP
30
18
04
00
E7
E7
63
63
C6
C6
CE
FF
77
ENDCHAR

STARTCHAR uacute
ENCODING 250
SWIDTH 552 0
DWIDTH 10 0
BBX 8 13 1 0
BITMAP
06
0C
10
00
E7
E7
63
63
C6
C6
CE
FF
77
ENDCHAR

STARTCHAR ucircumflex
ENCODING 251
SWIDTH 552 0
DWIDTH 10 0
BBX 8 13 1 0
BITMAP
0C
1E
22
00
E7
E7
63
63
C6
C6
CE
FF
77
ENDCHAR

STARTCHAR udieresis
ENCODING 252
SWIDTH 552 0
DWIDTH 10 0
BBX 8 12 1 0
BITMAP
36
36
00
E7
E7
63
63
C6
C6
CE
FF
77
ENDCHAR

STARTCHAR yacute
ENCODING 253
SWIDTH 510 0
DWIDTH 10 0
BBX 12 17 -1 -4
BITMAP
00C0
0180
0200
0000
3CF0
3CF0
18C0
1980
1B00
1B00
1E00
1C00
1800
1800
3000
F000
E000
ENDCHAR

STARTCHAR thorn
ENCODING 254
SWIDTH 604 0
DWIDTH 11 0
BBX 11 17 -1 -4
BITMAP
1C00
1C00
0C00
0C00
0D80
1FC0
1C60
1860
1860
3060
38C0
3F80
3700
6000
6000
F000
F000
ENDCHAR

STARTCHAR ydieresis
ENCODING 255
SWIDTH 510 0
DWIDTH 10 0
BBX 12 16 -1 -4
BITMAP
0CC0
0CC0
0000
3CF0
3CF0
18C0
1980
1B00
1B00
1E00
1C00
1800
1800
3000
F000
E000
ENDCHAR
ENDFONT
